<svg xmlns="http://www.w3.org/2000/svg" xmlns:xlink="http://www.w3.org/1999/xlink" version="1.1" x="0px" y="0px" viewBox="0 0 100 125" enable-background="new 0 0 100 100" xml:space="preserve"><path d="M94.526,24.373c-0.287-0.36-0.723-0.57-1.183-0.57H21.731l-2.839-3.078c0.055-0.112,0.105-0.228,0.144-0.351  c0.443-1.392-0.326-2.879-1.717-3.322l-8.671-2.763c-1.393-0.443-2.879,0.325-3.323,1.716s0.325,2.879,1.717,3.323l7.681,2.447  l4.444,4.818c0.055,0.06,0.118,0.105,0.177,0.156l10.32,43.243c0.162,0.681,0.77,1.16,1.47,1.16h53.395  c0.836,0,1.512-0.676,1.512-1.511c0-0.834-0.676-1.512-1.512-1.512H32.326l-1.413-5.918h54.308V62.21  c0.688,0,1.312-0.471,1.473-1.171l8.123-35.387C94.92,25.204,94.813,24.733,94.526,24.373z M71.098,59.19l0.779-8.872h14.178  l-2.037,8.872H71.098z M68.064,59.19H47.537l-1.106-8.872h22.412L68.064,59.19z M72.142,47.295l0.819-9.33H88.89l-2.142,9.33H72.142  z M69.108,47.295H46.054l-1.163-9.33h25.037L69.108,47.295z M25.127,37.965h16.717l1.163,9.33H27.354L25.127,37.965z M44.514,34.943  l-1.012-8.118h27.402l-0.712,8.118H44.514z M40.456,26.826l1.012,8.118H24.406l-1.937-8.118H40.456z M28.075,50.318h15.309  l1.106,8.872H30.193L28.075,50.318z M89.583,34.943H73.226l0.713-8.118h17.509L89.583,34.943z"/><path d="M39.243,73.079c-4.057,0-7.347,3.29-7.347,7.347s3.29,7.347,7.347,7.347c4.058,0,7.346-3.29,7.346-7.347  S43.301,73.079,39.243,73.079z M39.243,82.383c-1.081,0-1.957-0.878-1.957-1.957c0-1.08,0.876-1.957,1.957-1.957  s1.957,0.877,1.957,1.957C41.2,81.505,40.324,82.383,39.243,82.383z"/><path d="M77.212,73.079c-4.057,0-7.347,3.29-7.347,7.347s3.29,7.347,7.347,7.347c4.058,0,7.347-3.29,7.347-7.347  S81.27,73.079,77.212,73.079z M77.212,82.383c-1.081,0-1.957-0.878-1.957-1.957c0-1.08,0.876-1.957,1.957-1.957  s1.957,0.877,1.957,1.957C79.169,81.505,78.293,82.383,77.212,82.383z"/><text x="0" y="115" fill="#000000" font-size="5px" font-weight="bold" font-family="'Helvetica Neue', Helvetica, Arial-Unicode, Arial, Sans-serif">Created by Ryan Choi</text><text x="0" y="120" fill="#000000" font-size="5px" font-weight="bold" font-family="'Helvetica Neue', Helvetica, Arial-Unicode, Arial, Sans-serif">from the Noun Project</text></svg>