<svg xmlns="http://www.w3.org/2000/svg" xmlns:xlink="http://www.w3.org/1999/xlink" version="1.1" x="0px" y="0px" viewBox="0 0 100 125" enable-background="new 0 0 100 100" xml:space="preserve"><path d="M89.8,44.8L66.9,43l14.9-17.4c2-2,2-5.4,0-7.4c-2-2-5.4-2-7.4,0L57,33.1l-1.8-22.9C55.2,7.3,52.9,5,50,5  c-2.9,0-5.2,2.3-5.2,5.2L43,33.1L25.6,18.2c-2-2-5.4-2-7.4,0c-2,2-2,5.4,0,7.4L33.1,43l-22.9,1.8C7.3,44.8,5,47.1,5,50  c0,1.4,0.6,2.8,1.5,3.7c0.9,0.9,2.3,1.5,3.7,1.5L33.1,57L18.2,74.4c-2,2-2,5.4,0,7.4c1,1,2.4,1.5,3.7,1.5c1.3,0,2.7-0.5,3.7-1.5  L43,66.9l1.8,22.9c0,1.4,0.6,2.8,1.5,3.7c0.9,0.9,2.3,1.5,3.7,1.5c2.9,0,5.2-2.3,5.2-5.2L57,66.9l17.4,14.9c1,1,2.4,1.5,3.7,1.5  c1.3,0,2.7-0.5,3.7-1.5c2-2,2-5.4,0-7.4L66.9,57l22.9-1.8c2.9,0,5.2-2.3,5.2-5.2C95,47.1,92.7,44.8,89.8,44.8z"/><text x="0" y="115" fill="#000000" font-size="5px" font-weight="bold" font-family="'Helvetica Neue', Helvetica, Arial-Unicode, Arial, Sans-serif">Created by Martin Chapman Fromm</text><text x="0" y="120" fill="#000000" font-size="5px" font-weight="bold" font-family="'Helvetica Neue', Helvetica, Arial-Unicode, Arial, Sans-serif">from the Noun Project</text></svg>