<svg xmlns="http://www.w3.org/2000/svg" xmlns:xlink="http://www.w3.org/1999/xlink" version="1.1" x="0px" y="0px" viewBox="0 0 100 125" style="enable-background:new 0 0 100 100;" xml:space="preserve"><style type="text/css">
	.st0{display:none;}
	.st1{display:inline;fill:none;stroke:#EC008C;stroke-width:0.25;stroke-miterlimit:10;}
</style><g><path d="M64.9,45.4H58l3.4-6c0.4-0.7,0.1-1.7-0.6-2.1l-5.2-3c-0.8-0.5-1.8-0.2-2.2,0.5l-3.4,6l-3.4-6c-0.4-0.7-1.4-1-2.2-0.5   l-5.2,3c-0.8,0.4-1.1,1.4-0.6,2.1l3.4,6h-6.9c-0.8,0-1.5,0.7-1.5,1.6v6c0,0.9,0.7,1.6,1.5,1.6H42l-3.4,6c-0.4,0.7-0.1,1.7,0.6,2.1   l5.2,3c0.8,0.5,1.8,0.2,2.2-0.5l3.4-6l3.4,6c0.4,0.7,1.4,1,2.2,0.5l5.2-3c0.8-0.5,1.1-1.4,0.6-2.1l-3.4-6h6.9   c0.8,0,1.5-0.7,1.5-1.6v-6C66.4,46.1,65.7,45.4,64.9,45.4z"/></g><g class="st0"><rect x="2.5" y="2.5" class="st1" width="95" height="95"/></g><text x="0" y="115" fill="#000000" font-size="5px" font-weight="bold" font-family="'Helvetica Neue', Helvetica, Arial-Unicode, Arial, Sans-serif">Created by Kervin Markle</text><text x="0" y="120" fill="#000000" font-size="5px" font-weight="bold" font-family="'Helvetica Neue', Helvetica, Arial-Unicode, Arial, Sans-serif">from the Noun Project</text></svg>