<svg xmlns="http://www.w3.org/2000/svg" xmlns:xlink="http://www.w3.org/1999/xlink" version="1.1" x="0px" y="0px" viewBox="0 0 100 125" enable-background="new 0 0 100 100" xml:space="preserve"><path d="M42.4,23.6C35.5,33.3,23.6,51,21.5,62.8c-1.2,6.7-1.2,14.3,3.3,19.3c4.8,5.5,13.1,6,20.4,6.1c4.7,0.1,9.3,0.1,14,0.2  c3.8,0.1,7.7,0.1,11.1-1.7c2.8-1.5,4.9-4.1,6.3-7c2.7-5.8,2.7-12.6,1.1-18.9s-4.5-12-7.4-17.7c-1.2-2.4-2.5-4.9-4.1-7  c-3.8-4.9-9.7-8.1-13-13.4"/><path d="M42.4,22.6c-0.9-3.1-3.2-8-4.5-10.9c0.5,1.1,2.9,1.3,4,1.1c1.2-0.2,2.3-0.6,3.5-0.3c0.6,0.2,1.4,0.6,1.8,0.1  c0.2-0.2,0.2-0.6,0.4-0.9c0.1-0.3,0.6-0.5,0.7-0.2c0.1,0.2,0.3,0.4,0.5,0.5c1.5,1,3.8,0.5,4.7-1c0.3,0,1.5,0,1.7,0  c0.7,2-0.5,4.4-1.6,6.2c-0.5,0.9-0.3,3.5-0.5,4.5"/><text x="0" y="115" fill="#000000" font-size="5px" font-weight="bold" font-family="'Helvetica Neue', Helvetica, Arial-Unicode, Arial, Sans-serif">Created by Marianna Marozzi</text><text x="0" y="120" fill="#000000" font-size="5px" font-weight="bold" font-family="'Helvetica Neue', Helvetica, Arial-Unicode, Arial, Sans-serif">from the Noun Project</text></svg>