<svg xmlns="http://www.w3.org/2000/svg" xmlns:xlink="http://www.w3.org/1999/xlink" version="1.1" x="0px" y="0px" viewBox="0 0 100 125" enable-background="new 0 0 100 100" xml:space="preserve"><path d="M94.331,17.714L100,12.045L87.954,0l-5.668,5.669l1.417,1.417l-0.71,0.71L81.93,6.732l-1.414,1.414l1.063,1.063L78,12.789  c-2.988-1.512-6.269-2.268-9.548-2.268c-5.388-0.001-10.773,2.041-14.862,6.13L6.118,64.123c-4.945,4.946-6.88,11.79-5.85,18.241  l17.368,17.367c1.12,0.179,2.252,0.269,3.383,0.269c5.387,0,10.77-2.03,14.857-6.118l47.472-47.473  c6.576-6.575,7.855-16.511,3.862-24.409l3.579-3.579l1.063,1.063l1.414-1.414l-1.063-1.063l0.71-0.71L94.331,17.714z M94.331,14.886  l-0.003-0.003l0.003-0.003l-0.71-0.71l2.837-2.838l0.713,0.713L94.331,14.886z M91.495,12.044l2.837-2.838l0.712,0.712l-2.837,2.838  L91.495,12.044z M90.081,10.63l-0.712-0.711l2.838-2.838l0.711,0.711L90.081,10.63z M87.955,8.505l-0.711-0.712l2.838-2.838  l0.711,0.712L87.955,8.505z M85.114,5.669l2.84-2.841l0.714,0.713L85.83,6.379l-0.71-0.71l-0.003,0.003L85.114,5.669z   M50.754,22.315l26.93,26.93L40.838,86.093L13.907,59.162L50.754,22.315z M34.462,92.468C30.895,96.035,26.121,98,21.019,98  c-0.813,0-1.631-0.052-2.44-0.153L2.153,81.421C1.415,75.566,3.4,69.67,7.532,65.537l4.961-4.961l26.931,26.931L34.462,92.468z   M81.935,44.995l-2.837,2.836l-26.93-26.93l2.836-2.836c3.575-3.575,8.352-5.545,13.448-5.544c2.958,0,5.901,0.691,8.528,1.997  l-0.007,0.006l8.502,8.502l0.005-0.005C89.143,30.389,87.729,39.202,81.935,44.995z M85.83,20.553l-6.383-6.383l3.546-3.546  l6.383,6.383L85.83,20.553z M90.789,15.593L84.407,9.21l0.71-0.71l6.383,6.383L90.789,15.593z"/><text x="0" y="115" fill="#000000" font-size="5px" font-weight="bold" font-family="'Helvetica Neue', Helvetica, Arial-Unicode, Arial, Sans-serif">Created by Jake Dunham</text><text x="0" y="120" fill="#000000" font-size="5px" font-weight="bold" font-family="'Helvetica Neue', Helvetica, Arial-Unicode, Arial, Sans-serif">from the Noun Project</text></svg>