<svg xmlns="http://www.w3.org/2000/svg" xmlns:xlink="http://www.w3.org/1999/xlink" version="1.1" x="0px" y="0px" viewBox="0 0 100 125" enable-background="new 0 0 100 100" xml:space="preserve"><path d="M39.401,77.408c-2.33-1.206-4.611-2.876-6.67-4.935c-2.186-2.178-3.901-4.582-5.119-7.002  c-0.599-1.19-1.079-2.388-1.428-3.565c-0.221-0.759-0.394-1.509-0.513-2.248c-0.406,1.485-0.398,3.224,0.078,5.136  c0.788,3.167,2.728,6.42,5.468,9.156c3.569,3.569,7.962,5.702,11.748,5.702l0,0c0.775,0,1.502-0.09,2.183-0.271  c-0.759-0.123-1.522-0.299-2.293-0.537C41.706,78.487,40.55,78.003,39.401,77.408z"/><path d="M60.745,44.464c-5.399-5.402-7.995-12.085-7.085-17.102c-0.045,0.045-0.086,0.09-0.131,0.139  c-0.095,0.086-0.193,0.172-0.287,0.263c-0.09,0.09-0.176,0.193-0.263,0.287c-0.098,0.086-0.193,0.172-0.283,0.263  c-0.094,0.09-0.18,0.189-0.266,0.287c-0.099,0.086-0.193,0.168-0.283,0.263c-0.095,0.09-0.181,0.189-0.267,0.287  c-0.098,0.086-0.193,0.168-0.287,0.263c-0.09,0.09-0.176,0.189-0.258,0.287c-0.098,0.082-0.197,0.172-0.287,0.263  c-0.095,0.094-0.176,0.189-0.267,0.287c-0.095,0.082-0.193,0.168-0.287,0.263c-0.09,0.095-0.172,0.189-0.262,0.287  c-0.094,0.082-0.193,0.168-0.283,0.258c-0.094,0.098-0.18,0.193-0.263,0.287c-0.098,0.09-0.197,0.172-0.287,0.263  c-0.09,0.094-0.181,0.193-0.263,0.287c-0.099,0.09-0.193,0.172-0.287,0.263c-0.09,0.095-0.176,0.193-0.263,0.287  c-0.098,0.086-0.197,0.172-0.287,0.263c-0.09,0.094-0.176,0.189-0.263,0.287c-0.099,0.086-0.197,0.172-0.287,0.267  c-0.09,0.09-0.176,0.185-0.263,0.283c-0.098,0.082-0.193,0.172-0.287,0.267c-0.09,0.09-0.176,0.184-0.263,0.283  c-0.094,0.087-0.193,0.168-0.287,0.263c-0.09,0.095-0.176,0.193-0.262,0.287c-0.099,0.086-0.193,0.168-0.287,0.263  c-0.09,0.095-0.176,0.193-0.258,0.287c-0.098,0.086-0.197,0.168-0.287,0.263c-0.094,0.09-0.18,0.189-0.266,0.287  c-0.095,0.086-0.193,0.168-0.287,0.259c-0.09,0.094-0.176,0.192-0.258,0.291c-0.099,0.086-0.197,0.172-0.291,0.263  c-0.09,0.09-0.176,0.184-0.263,0.287c-0.094,0.082-0.193,0.173-0.287,0.263c-0.09,0.09-0.172,0.185-0.263,0.283  c-0.095,0.086-0.193,0.172-0.283,0.267c-0.095,0.09-0.176,0.189-0.263,0.283c-0.098,0.086-0.193,0.172-0.287,0.267  c-0.09,0.09-0.176,0.189-0.263,0.283c-0.098,0.087-0.193,0.173-0.287,0.263c-0.09,0.095-0.176,0.193-0.263,0.287  c-0.099,0.086-0.193,0.172-0.287,0.263c-0.094,0.095-0.176,0.193-0.258,0.291c-0.098,0.082-0.201,0.168-0.291,0.259  c-0.095,0.094-0.176,0.189-0.263,0.287c-0.095,0.086-0.193,0.172-0.287,0.263c-0.09,0.095-0.172,0.189-0.263,0.287  c-0.094,0.086-0.193,0.172-0.283,0.263c-0.094,0.09-0.18,0.189-0.267,0.283c-0.094,0.09-0.192,0.176-0.283,0.266  c-0.095,0.09-0.181,0.189-0.267,0.283c-0.095,0.09-0.193,0.172-0.283,0.267c-0.09,0.09-0.181,0.189-0.263,0.287  c-0.098,0.082-0.197,0.168-0.287,0.263c-0.094,0.09-0.18,0.189-0.262,0.287c-0.098,0.082-0.197,0.168-0.291,0.263  c-0.09,0.09-0.172,0.189-0.258,0.287c-0.095,0.082-0.197,0.168-0.287,0.263c-0.094,0.09-0.176,0.189-0.266,0.283  c-0.095,0.086-0.189,0.172-0.283,0.263c-0.09,0.094-0.176,0.193-0.263,0.287c-0.099,0.09-0.193,0.172-0.287,0.263  c-0.09,0.095-0.176,0.193-0.263,0.287c-0.098,0.09-0.193,0.172-0.287,0.263c-0.09,0.09-0.176,0.193-0.263,0.287  c-0.099,0.087-0.197,0.173-0.287,0.263c-0.09,0.09-0.176,0.189-0.263,0.287c-0.098,0.086-0.193,0.172-0.287,0.267  c-0.09,0.09-0.176,0.184-0.262,0.283c-0.094,0.082-0.193,0.172-0.287,0.263c-0.09,0.094-0.172,0.189-0.263,0.287  c-0.095,0.086-0.193,0.168-0.287,0.263c-0.09,0.095-0.176,0.189-0.263,0.287c-0.098,0.086-0.193,0.168-0.283,0.263  c-0.094,0.094-0.18,0.193-0.266,0.283c-0.094,0.09-0.189,0.172-0.283,0.266c-0.062,0.058-0.119,0.123-0.172,0.185l-0.714,2.675  c-0.279,1.054-0.332,2.24-0.18,3.499c0.029,0.258,0.074,0.525,0.123,0.796c0.049,0.254,0.102,0.512,0.168,0.775  c0.845,3.528,3.101,7.441,6.358,10.698c3.183,3.183,6.994,5.407,10.485,6.215c0.258,0.062,0.517,0.111,0.771,0.156  c0.271,0.045,0.541,0.086,0.804,0.111c0.402,0.045,0.796,0.074,1.181,0.074c0.796,0,1.538-0.095,2.219-0.279l2.703-0.743  c0.074-0.066,0.147-0.127,0.213-0.197c0.094-0.09,0.184-0.189,0.266-0.283c0.099-0.086,0.193-0.172,0.287-0.266  c0.09-0.09,0.176-0.189,0.262-0.287c0.098-0.082,0.197-0.168,0.287-0.263c0.09-0.09,0.176-0.189,0.263-0.287  c0.094-0.082,0.193-0.168,0.287-0.263c0.09-0.094,0.176-0.189,0.263-0.283c0.095-0.087,0.193-0.173,0.287-0.267  c0.09-0.095,0.176-0.189,0.267-0.287c0.094-0.082,0.189-0.168,0.279-0.258c0.094-0.095,0.18-0.189,0.263-0.283  c0.098-0.09,0.193-0.176,0.287-0.267c0.095-0.09,0.181-0.189,0.263-0.287c0.099-0.086,0.197-0.172,0.287-0.263  c0.09-0.09,0.181-0.189,0.263-0.287c0.098-0.086,0.197-0.172,0.287-0.263c0.094-0.09,0.181-0.189,0.262-0.287  c0.099-0.082,0.197-0.173,0.287-0.263c0.095-0.095,0.176-0.185,0.263-0.283c0.095-0.086,0.193-0.172,0.287-0.267  c0.094-0.095,0.18-0.189,0.266-0.287c0.095-0.086,0.193-0.172,0.283-0.263c0.09-0.094,0.176-0.189,0.263-0.287  c0.099-0.086,0.193-0.168,0.287-0.258c0.09-0.095,0.181-0.193,0.263-0.287c0.098-0.09,0.193-0.172,0.287-0.263  c0.09-0.095,0.176-0.193,0.263-0.287c0.099-0.086,0.193-0.172,0.287-0.266c0.09-0.09,0.176-0.189,0.263-0.283  c0.095-0.086,0.193-0.172,0.287-0.267c0.094-0.09,0.176-0.184,0.263-0.283c0.094-0.086,0.193-0.172,0.287-0.267  c0.09-0.09,0.172-0.184,0.263-0.283c0.095-0.086,0.193-0.173,0.287-0.267c0.09-0.09,0.176-0.189,0.263-0.283  c0.098-0.086,0.193-0.168,0.283-0.263c0.09-0.095,0.18-0.193,0.263-0.287c0.098-0.086,0.197-0.168,0.287-0.263  c0.095-0.094,0.176-0.193,0.263-0.287c0.099-0.086,0.197-0.168,0.291-0.263c0.09-0.09,0.176-0.189,0.258-0.287  c0.098-0.086,0.197-0.172,0.287-0.263c0.095-0.094,0.176-0.189,0.267-0.287c0.095-0.082,0.193-0.173,0.283-0.263  c0.095-0.09,0.176-0.189,0.263-0.283c0.095-0.09,0.197-0.176,0.287-0.267c0.094-0.09,0.176-0.189,0.262-0.283  c0.098-0.09,0.193-0.172,0.287-0.267c0.09-0.09,0.181-0.189,0.263-0.283c0.099-0.086,0.193-0.173,0.283-0.263  c0.095-0.095,0.181-0.193,0.267-0.292c0.094-0.082,0.193-0.168,0.287-0.258c0.09-0.095,0.176-0.193,0.263-0.287  c0.099-0.086,0.193-0.172,0.287-0.266c0.09-0.09,0.176-0.189,0.263-0.283c0.095-0.086,0.193-0.172,0.287-0.263  c0.09-0.095,0.176-0.189,0.263-0.287c0.094-0.086,0.193-0.172,0.287-0.263c0.09-0.09,0.172-0.189,0.258-0.283  c0.099-0.086,0.193-0.172,0.287-0.266c0.094-0.095,0.181-0.193,0.267-0.287c0.098-0.09,0.193-0.172,0.283-0.263  c0.09-0.09,0.18-0.189,0.263-0.287c0.098-0.082,0.197-0.168,0.287-0.263c0.095-0.09,0.176-0.189,0.263-0.287  c0.099-0.082,0.197-0.172,0.287-0.263c0.094-0.095,0.176-0.189,0.263-0.287c0.098-0.082,0.197-0.168,0.287-0.263  c0.095-0.094,0.176-0.189,0.267-0.287c0.095-0.082,0.193-0.172,0.283-0.263c0.09-0.09,0.176-0.189,0.263-0.283  c0.098-0.086,0.193-0.172,0.283-0.263c0.094-0.095,0.18-0.193,0.267-0.287c0.098-0.09,0.193-0.172,0.283-0.263  c0.094-0.094,0.181-0.193,0.267-0.291c0.095-0.082,0.197-0.168,0.287-0.258c0.09-0.095,0.18-0.193,0.263-0.292  c0.029-0.024,0.057-0.049,0.086-0.078c-0.673,0.127-1.374,0.201-2.112,0.201C70.692,51.565,65.195,48.911,60.745,44.464z"/><path d="M49.644,75.32c-0.271-0.033-0.55-0.074-0.825-0.127c-0.263-0.045-0.525-0.102-0.792-0.16  c-2.658-0.623-5.493-1.981-8.18-4.012c-1.038-0.78-2.051-1.653-3.023-2.625c-3.548-3.549-5.895-7.692-6.789-11.474  c-0.061-0.258-0.123-0.521-0.172-0.775c-0.053-0.275-0.086-0.541-0.119-0.812c-0.201-1.526-0.148-2.966,0.197-4.246  c-0.012,0.013-0.024,0.021-0.033,0.033c-0.098,0.086-0.193,0.172-0.287,0.266c-0.09,0.09-0.176,0.189-0.263,0.283  c-0.099,0.086-0.193,0.172-0.287,0.263c-0.045,0.049-0.09,0.102-0.135,0.152c-0.344,0.365-0.644,0.771-0.89,1.21  c-0.62,1.087-0.94,2.371-0.985,3.782c-0.012,0.418-0.004,0.845,0.033,1.284c0.037,0.472,0.102,0.952,0.197,1.44  c0.706,3.753,2.995,7.97,6.568,11.547c3.499,3.499,7.548,5.702,11.178,6.395c0.5,0.094,0.993,0.16,1.477,0.201  c0.312,0.025,0.619,0.041,0.923,0.041c0.139,0,0.275-0.013,0.41-0.016c1.37-0.053,2.625-0.369,3.7-0.964  c0.455-0.25,0.878-0.55,1.264-0.898c0.074-0.074,0.156-0.135,0.226-0.205c0.094-0.095,0.181-0.193,0.267-0.287  c0.098-0.086,0.193-0.168,0.283-0.263c0.086-0.09,0.168-0.181,0.246-0.271c-0.82,0.226-1.706,0.336-2.638,0.336  C50.69,75.419,50.169,75.386,49.644,75.32z"/><polygon points="62.028,21.656 62.028,21.656 62.028,21.919 "/><path d="M78.979,26.189c-3.602-3.606-8.217-5.841-12.04-5.841c-0.644,0-1.256,0.066-1.83,0.193  c-0.476,0.102-0.927,0.242-1.346,0.426c-0.123,0.053-0.246,0.107-0.365,0.164c-0.308,0.156-0.595,0.341-0.866,0.537  c-0.102,0.078-0.209,0.16-0.307,0.246c-0.07,0.058-0.131,0.115-0.197,0.173v0.004c-0.058,0.053-0.119,0.099-0.172,0.152  c-0.07,0.07-0.123,0.147-0.189,0.221c-1.863,0.066-3.512,0.607-4.771,1.682c-0.012,0.012-0.024,0.021-0.033,0.033  c-0.012,0.004-0.024,0.016-0.041,0.025c-0.008,0.012-0.016,0.024-0.029,0.041c-0.008,0.013-0.021,0.025-0.029,0.037  c-3.577,4.18-1.296,12.643,5.111,19.05c1.141,1.144,2.342,2.141,3.565,2.998c0.423,0.295,0.849,0.575,1.276,0.837  c2.99,1.829,6.055,2.801,8.73,2.801c2.055,0,3.872-0.574,5.247-1.764c0.016-0.012,0.037-0.024,0.053-0.041  c0.004-0.004,0.016-0.008,0.021-0.016c0.012-0.013,0.02-0.025,0.029-0.033c0.016-0.016,0.021-0.029,0.033-0.041  c1.103-1.28,1.674-2.941,1.747-4.82c0.053-0.045,0.107-0.09,0.156-0.139c0.144-0.144,0.267-0.304,0.394-0.46  c0.078-0.094,0.164-0.18,0.234-0.275c0.213-0.287,0.39-0.599,0.55-0.915c0.058-0.119,0.107-0.246,0.156-0.369  c0.181-0.422,0.332-0.861,0.435-1.333c0.283-1.337,0.238-2.864-0.147-4.504C83.618,32.137,81.706,28.917,78.979,26.189z   M82.798,35.624c0.115,0.497,0.184,0.964,0.234,1.428c0.012,0.131,0.029,0.258,0.037,0.385c0.041,0.714-0.004,1.374-0.139,1.99  c-0.016,0.094-0.045,0.184-0.07,0.275c-0.107,0.41-0.25,0.8-0.439,1.157c-0.189,0.365-0.427,0.693-0.706,0.989  c-0.037,0.045-0.074,0.098-0.115,0.139c-0.189,0.193-0.402,0.357-0.62,0.512c-0.914,0.632-2.08,0.968-3.429,0.968l0,0  c-3.372,0-7.343-1.957-10.616-5.23c-2.539-2.539-4.332-5.526-5.05-8.414c-0.586-2.35-0.381-4.352,0.55-5.763  c0.164-0.242,0.341-0.476,0.55-0.689c0.029-0.021,0.053-0.045,0.074-0.066c0.283-0.267,0.599-0.492,0.952-0.685l0,0  c0.344-0.184,0.722-0.336,1.128-0.447c0.098-0.029,0.197-0.05,0.299-0.074c0.468-0.102,0.968-0.156,1.502-0.156  c0.143,0,0.291,0.008,0.443,0.016c0.144,0.004,0.295,0.016,0.439,0.033c1.321,0.127,2.728,0.533,4.139,1.177  c2.047,0.927,4.094,2.35,5.89,4.147c1.744,1.743,3.113,3.696,4.02,5.669C82.268,33.868,82.592,34.75,82.798,35.624z"/><path d="M70.356,24.962L70.356,24.962c-1.181-0.488-2.313-0.755-3.318-0.755c-0.049,0-0.09,0.008-0.135,0.008  c-0.591,0.016-1.099,0.131-1.526,0.336c-0.271,0.131-0.521,0.283-0.722,0.488c-0.927,0.923-1.087,2.646-0.435,4.726  c0.714,2.268,2.265,4.68,4.365,6.785c2.863,2.859,6.268,4.635,8.893,4.635l0,0c1.054,0,1.883-0.291,2.461-0.865  c0.226-0.226,0.406-0.501,0.546-0.808c0.193-0.427,0.295-0.935,0.312-1.498c0.021-0.697-0.09-1.485-0.353-2.35  c-0.123-0.418-0.287-0.841-0.476-1.272c-0.796-1.838-2.108-3.725-3.802-5.423C74.363,27.169,72.3,25.766,70.356,24.962z   M77.452,37.408c-0.32,0.283-0.726,0.427-1.21,0.427c-1.173,0-2.457-0.808-3.048-1.633c-0.701-0.857-1.489-1.641-2.375-2.367  c-0.685-0.492-1.469-1.624-1.584-2.756c-0.057-0.603,0.078-1.099,0.418-1.473c0.316-0.287,0.722-0.431,1.202-0.431  c1.173,0,2.461,0.812,3.056,1.632c0.694,0.853,1.481,1.641,2.375,2.367c0.677,0.492,1.465,1.624,1.579,2.756  C77.928,36.535,77.789,37.031,77.452,37.408z"/><path d="M74.228,33.954c-0.439,0.439-0.328,1.268,0.255,1.846c0.578,0.578,1.403,0.693,1.842,0.25  c0.443-0.439,0.328-1.264-0.25-1.842C75.492,33.626,74.667,33.516,74.228,33.954z"/><text x="0" y="115" fill="#000000" font-size="5px" font-weight="bold" font-family="'Helvetica Neue', Helvetica, Arial-Unicode, Arial, Sans-serif">Created by Ryzhkov Anton</text><text x="0" y="120" fill="#000000" font-size="5px" font-weight="bold" font-family="'Helvetica Neue', Helvetica, Arial-Unicode, Arial, Sans-serif">from the Noun Project</text></svg>