<svg xmlns="http://www.w3.org/2000/svg" xmlns:xlink="http://www.w3.org/1999/xlink" version="1.1" x="0px" y="0px" viewBox="0 0 100 125" enable-background="new 0 0 100 100" xml:space="preserve"><path fill="#000000" d="M73.047,76.07l0.005-52.614c0-0.185-0.008-0.37-0.025-0.497c-0.017-0.134-0.035-0.256-0.062-0.384  c-0.029-0.172-0.073-0.34-0.13-0.502c-0.063-0.212-0.149-0.418-0.264-0.637c-0.101-0.213-0.219-0.411-0.345-0.58  c-0.144-0.197-0.304-0.378-0.535-0.612c-0.084-0.082-0.171-0.164-0.233-0.214c-0.263-0.225-0.552-0.415-0.824-0.551  c-0.233-0.129-2.27-1.301-2.27-2.889c0-0.055-0.002-0.109-0.005-0.161v-0.038c0-5.107-9.336-7.433-18.009-7.433L50,8.961  l-0.349-0.002c-8.673,0-18.009,2.326-18.009,7.433v0.035c-0.003,0.055-0.005,0.109-0.005,0.165c0,1.489-1.79,2.613-2.263,2.886  c-0.309,0.158-0.579,0.339-0.794,0.524c-0.099,0.081-0.186,0.162-0.339,0.312c-0.162,0.166-0.322,0.348-0.457,0.532  c-0.135,0.18-0.254,0.379-0.354,0.592c-0.114,0.219-0.2,0.425-0.264,0.637c-0.057,0.162-0.1,0.33-0.129,0.501  c-0.028,0.127-0.045,0.242-0.058,0.35c-0.022,0.162-0.031,0.347-0.031,0.532l0.005,52.614c-0.008,0.112-0.01,0.22-0.01,0.338  c0,0.908,0.271,1.78,0.767,2.496c0.187,0.279,0.391,0.518,0.582,0.69c0.082,0.08,0.167,0.16,0.299,0.272  c0.193,0.157,0.399,0.298,0.615,0.42c0.084,0.054,0.169,0.101,0.255,0.142c0.309,0.177,2.181,1.312,2.181,2.833v0.347  c0,5.106,9.336,7.433,18.009,7.433l0.312-0.002l0.386,0.002c8.673,0,18.009-2.326,18.009-7.433l-0.003-0.203  c0.002-0.047,0.003-0.095,0.003-0.144c0-1.521,1.872-2.656,2.181-2.833c0.086-0.042,0.171-0.089,0.256-0.143  c0.216-0.121,0.428-0.267,0.651-0.449c0.096-0.082,0.181-0.162,0.22-0.203c0.233-0.212,0.438-0.45,0.607-0.704  c0.513-0.741,0.784-1.613,0.784-2.521C73.058,76.29,73.055,76.183,73.047,76.07z M31.143,75.441l0.009-47.429  c4.171,2.352,11.311,3.564,18.398,3.564l0.428-0.002l0.471,0.002c7.066,0,14.183-1.205,18.36-3.542l0.032,47.423  c-1.883,1.979-8.754,4.265-18.392,4.265l-0.471-0.002l-0.428,0.002C39.885,79.722,33.003,77.425,31.143,75.441z M50,13.166  l0.349-0.002c6.299,0,10.437,1.188,12.43,2.189c-1.889,1.099-6.113,2.379-12.447,2.379L50,17.73l-0.333,0.002  c-6.31,0-10.528-1.271-12.426-2.367c2.006-1.022,6.135-2.201,12.409-2.201L50,13.166z M31.202,23.298  c0.001-0.001,0.002-0.002,0.003-0.003l0.198-0.136c0.897-0.496,3.541-2.181,4.255-5.079c3.196,1.904,8.726,2.806,14.009,2.806  L50,20.884l0.333,0.002c5.283,0,10.813-0.901,14.009-2.806c0.714,2.898,3.354,4.581,4.229,5.064l0.184,0.11  c0.017,0.017,0.034,0.034,0.052,0.055l0.001,0.886c-1.931,1.971-8.777,4.229-18.357,4.229l-0.471-0.002l-0.428,0.002  c-9.649,0-16.524-2.29-18.397-4.271V23.44L31.202,23.298z M64.093,83.673c-0.681,1.01-5.262,3.163-13.744,3.163l-0.386-0.002  l-0.312,0.002c-8.486,0-13.068-2.156-13.738-3.106l-0.067-0.468c0-0.807-0.157-1.538-0.407-2.199  c4.007,1.199,9.072,1.813,14.111,1.813l0.428-0.003l0.471,0.003c5.035,0,10.094-0.612,14.1-1.81  c-0.242,0.642-0.395,1.35-0.394,2.126L64.093,83.673z"/><text x="0" y="115" fill="#000000" font-size="5px" font-weight="bold" font-family="'Helvetica Neue', Helvetica, Arial-Unicode, Arial, Sans-serif">Created by Dara Ullrich</text><text x="0" y="120" fill="#000000" font-size="5px" font-weight="bold" font-family="'Helvetica Neue', Helvetica, Arial-Unicode, Arial, Sans-serif">from the Noun Project</text></svg>