<svg xmlns="http://www.w3.org/2000/svg" xmlns:xlink="http://www.w3.org/1999/xlink" version="1.1" x="0px" y="0px" viewBox="0 0 100 125" enable-background="new 0 0 100 100" xml:space="preserve"><path d="M84.601,72.771c-3.637-2.764-4.697-7.627-4.96-9.27c3.719-4.477,6.384-9.416,5.996-13.98  c-0.048-0.564-0.3-1.255-0.618-2.129c-0.259-0.708-0.796-2.183-0.738-2.628c0.052-0.312,0.171-0.66,0.309-1.063  c0.438-1.281,1.036-3.035,0.328-5.968c-0.433-1.779-1.403-2.597-2.046-3.138c-0.159-0.135-0.4-0.337-0.433-0.408  c-0.158-0.388-0.085-0.764,0.082-1.512c0.258-1.155,0.611-2.737-0.432-4.807c-0.893-1.768-2.201-2.39-3.066-2.802  c-0.178-0.084-0.413-0.197-0.519-0.268c-0.065-0.196-0.074-0.586-0.082-0.965c-0.027-1.284-0.068-3.225-2.075-5.218  c-0.582-0.578-2.068-1.768-4.488-1.917c0.168-2.156-0.238-4.63-1.85-6.267c-0.965-0.979-2.742-2.029-5.724-1.466  c-3.991,0.751-9.317,3.548-10.28,4.066c-4.266-1.28-6.614,0.235-9.546,2.134c-0.369,0.239-0.756,0.489-1.166,0.748  c-0.75,0.471-1.649,1.082-2.537,1.786c-0.145-0.06-0.299-0.104-0.464-0.116c-4.922-0.352-13.911-0.97-15.63,6.721  c-2.791,1.261-5.604,3.865-6.131,7.266c-0.114,0.74-0.13,1.605,0.055,2.56c-1.344,1.052-3.338,3.091-3.497,6.032  c-0.071,1.324,0.242,2.63,0.935,3.906c-0.03,0.045-0.065,0.087-0.092,0.136c-0.663,1.224-2.681,4.946-0.866,8.934  c1,2.201,3.009,4.059,5.987,5.563c0.121,1.703,0.133,6.732-3.438,10.414c-0.577,0.594-0.563,1.543,0.032,2.119  c0.291,0.283,0.668,0.424,1.044,0.424c0.392,0,0.782-0.152,1.076-0.455c3.616-3.729,4.282-8.434,4.317-11.211  c1.486,0.533,3.136,1.006,4.955,1.414c1.732,0.389,3.293,0.584,4.677,0.584c2.595,0,4.568-0.684,5.896-2.043  c1.497-1.537,1.75-3.52,1.71-4.881c1.63-0.074,2.962-0.385,3.815-0.977c2.563-1.781,2.727-4.778,2.619-6.319  c0.599-0.178,1.126-0.411,1.563-0.703c4.234-2.823,2.597-8.217,2.271-9.156c0.211-0.391,0.401-0.804,0.542-1.264  c0.778-2.544,0.311-6.092-1.896-8.369c2.344-1.227,3.857-1.594,5.438-1.97c2.45-0.584,4.983-1.188,10.236-4.623  c5.188-3.394,7.681-1.58,8.321-0.942c1.147,1.14,1.167,2.073,1.19,3.153c0,0.008,0.001,0.017,0.001,0.025  c-0.002,2.617-4.071,7.79-7.571,10.495c-0.655,0.506-0.776,1.448-0.27,2.104c0.295,0.383,0.739,0.583,1.188,0.583  c0.32,0,0.644-0.103,0.916-0.313c2.569-1.985,6.025-5.697,7.713-9.182c0.112,0.057,0.228,0.115,0.334,0.166  c0.696,0.332,1.247,0.594,1.677,1.444c0.544,1.081,0.409,1.783,0.2,2.724c-0.989,2.572-2.513,6.427-7.814,11.632  c-0.591,0.58-0.6,1.53-0.02,2.121c0.294,0.299,0.682,0.449,1.07,0.449c0.379,0,0.759-0.143,1.051-0.43  c3.553-3.487,5.529-6.381,6.866-8.978c0.059,0.051,0.119,0.104,0.175,0.151c0.501,0.422,0.862,0.728,1.063,1.55  c0.41,1.699,0.24,2.725-0.046,3.662c-1.833,5.25-5.566,9.579-5.604,9.622c-0.544,0.625-0.479,1.572,0.146,2.115  c0.284,0.248,0.636,0.369,0.985,0.369c0.418,0,0.834-0.174,1.13-0.514c0.11-0.127,1.86-2.16,3.623-5.176  c0.174,0.477,0.388,1.07,0.412,1.258c0.606,7.147-8.989,17.061-18.162,23.249c-3.04,2.049-6.044,3.357-9.225,4.742  c-4.496,1.957-9.592,4.176-15.661,8.941c-0.652,0.512-0.766,1.453-0.254,2.105c0.296,0.377,0.736,0.574,1.181,0.574  c0.324,0,0.65-0.105,0.925-0.32c3.615-2.838,6.811-4.701,9.811-6.184c0.11,0.137,0.242,0.26,0.402,0.354  c0.044,0.025,4.465,2.66,6.646,7.113c0.26,0.531,0.793,0.84,1.348,0.84c0.222,0,0.446-0.049,0.659-0.154  c0.744-0.363,1.052-1.262,0.687-2.006c-1.846-3.77-4.952-6.373-6.642-7.592c0.704-0.314,1.403-0.619,2.098-0.922  c3.31-1.441,6.436-2.801,9.704-5.006c3.232-2.18,7.374-5.463,11.01-9.254c0.726,2.629,2.292,6.377,5.613,8.902  c0.271,0.205,0.59,0.305,0.906,0.305c0.453,0,0.9-0.203,1.195-0.592C85.389,74.213,85.261,73.271,84.601,72.771z M37.975,20.466  c-0.759,1.024-1.248,2.113-1.19,3.202c0.104,1.935,1.53,3.826,3.818,5.06c1.777,0.958,4.29,1.572,6.653,0.942  c0.063,0.061,0.129,0.119,0.204,0.169c1.853,1.251,2.38,4.054,1.805,5.933c-0.271,0.885-0.884,1.94-2.269,1.94  c-3.33,0-14.058-4.221-18.151-8.921c-1.053-1.208-1.522-2.283-1.396-3.195C27.998,21.637,30.816,20.206,37.975,20.466z   M37.464,57.854c-1.239,1.273-3.925,1.492-7.768,0.627c-6.489-1.455-10.604-3.73-11.9-6.58c-0.851-1.871-0.395-3.727,0.251-5.196  c0.37,0.373,0.763,0.743,1.201,1.109c4.416,3.686,12.819,6.565,19.071,7.155C38.372,55.756,38.297,57,37.464,57.854z M43.426,51.629  c-2.242,1.555-15.986-0.887-22.256-6.118c-2.137-1.785-3.176-3.529-3.086-5.185c0.074-1.372,0.908-2.491,1.684-3.247  c0.783,1.274,1.983,2.625,3.771,3.997c5.572,4.279,14.513,7.14,20.622,7.14c0.21,0,0.414-0.007,0.616-0.013  C44.813,49.166,44.666,50.766,43.426,51.629z M47.656,44.574c-2.813,1.872-15.122-0.372-22.292-5.876  c-1.998-1.534-4.291-3.937-3.868-6.666c0.283-1.827,1.68-3.353,3.241-4.346c0.336,1.016,0.945,2.043,1.845,3.076  c4.744,5.446,16.445,9.951,20.414,9.951c0.759,0,1.458-0.163,2.098-0.441C49.299,41.593,49.255,43.508,47.656,44.574z   M54.979,23.392c-1.984,0.473-4.036,0.962-7.539,3.006c-1.41,0.824-3.536,0.702-5.414-0.311c-1.319-0.711-2.201-1.724-2.246-2.579  c-0.037-0.688,1.318-2.669,5.11-5.055c0.422-0.265,0.819-0.522,1.199-0.768c2.028-1.313,3.297-2.135,4.976-2.135  c0.761,0,1.604,0.168,2.642,0.536c2.259,0.802,3.759,1.749,5.835,3.058c0.725,0.457,1.504,0.948,2.389,1.479  C58.676,22.511,56.871,22.941,54.979,23.392z M64.703,18.9c-0.115-0.147-0.259-0.276-0.431-0.375  c-1.206-0.703-2.213-1.338-3.13-1.917c-1.223-0.771-2.304-1.448-3.477-2.059c2.006-0.957,4.903-2.206,7.174-2.634  c1.352-0.257,2.372-0.046,3.031,0.623c0.862,0.875,1.214,2.652,0.934,4.515C67.582,17.385,66.221,17.957,64.703,18.9z"/><text x="0" y="115" fill="#000000" font-size="5px" font-weight="bold" font-family="'Helvetica Neue', Helvetica, Arial-Unicode, Arial, Sans-serif">Created by Sergey Demushkin</text><text x="0" y="120" fill="#000000" font-size="5px" font-weight="bold" font-family="'Helvetica Neue', Helvetica, Arial-Unicode, Arial, Sans-serif">from the Noun Project</text></svg>