<svg xmlns="http://www.w3.org/2000/svg" xmlns:xlink="http://www.w3.org/1999/xlink" version="1.1" x="0px" y="0px" viewBox="0 0 100 125" enable-background="new 0 0 100 100" xml:space="preserve"><path fill-rule="evenodd" clip-rule="evenodd" fill="#000000" d="M63,50l29.2-29.2c3.7-3.7,3.7-9.5,0.1-13.1  c-3.6-3.6-9.5-3.5-13.1,0.1L50,37L20.8,7.8c-3.7-3.7-9.5-3.7-13.1-0.1c-3.6,3.6-3.5,9.5,0.1,13.1L37,50L7.8,79.2  c-3.7,3.7-3.7,9.5-0.1,13.1c3.6,3.6,9.5,3.5,13.1-0.1L50,63l29.2,29.2c3.7,3.7,9.5,3.7,13.1,0.1c3.6-3.6,3.5-9.5-0.1-13.1L63,50z"/><text x="0" y="115" fill="#000000" font-size="5px" font-weight="bold" font-family="'Helvetica Neue', Helvetica, Arial-Unicode, Arial, Sans-serif">Created by Brian Dys Sahagun</text><text x="0" y="120" fill="#000000" font-size="5px" font-weight="bold" font-family="'Helvetica Neue', Helvetica, Arial-Unicode, Arial, Sans-serif">from the Noun Project</text></svg>